# xmcd CD database file
#
# Track frame offsets:
#	150
#	18170
#	32365
#	52195
#	70182
#	86345
#	99407
#	117730
#	134125
#	148192
#	159577
#	170152
#
# Disc length: 2456 seconds
#
# Revision: 0
# Processed by: cddbd v1.4PL0 Copyright (c) Steve Scherf et al.
# Submitted via: CDex 1.50
#
DISCID=ab09960c
DTITLE=Leandro and Leonardo - Grandes Sucessos - Tributo a Leandro and Leonardo
DYEAR=1900
DGENRE=Country
TTITLE0=Um Sonhador
TTITLE1=Cumpade e Cumade
TTITLE2=Deu Medo
TTITLE3=Dia de Rodeio
TTITLE4=Não Aprendi a Dizer Adeus
TTITLE5=Entre um Gole e Outro
TTITLE6=Desculpe mas eu vou chorar
TTITLE7=Achei uma Louca
TTITLE8=Temporal de Amor
TTITLE9=Anarriê
TTITLE10=Mexe Mexe
TTITLE11=Festa de Rodeio
EXTD=
EXTT0=
EXTT1=
EXTT2=
EXTT3=
EXTT4=
EXTT5=
EXTT6=
EXTT7=
EXTT8=
EXTT9=
EXTT10=
EXTT11=
PLAYORDER=
